<svg width="52" height="43" viewBox="0 0 52 43" fill="none" xmlns="http://www.w3.org/2000/svg">
<path d="M45.0941 13.9959C44.5467 14.5278 43.8064 14.8263 43.0347 14.8263C42.263 14.8263 41.5227 14.5278 40.9753 13.9959L38.5577 11.6308C38.0136 11.0958 37.7082 10.372 37.7082 9.61744C37.7082 8.86292 38.0136 8.13908 38.5577 7.60409L44.0306 2.25234C44.0411 2.24205 44.0489 2.22941 44.0533 2.2155C44.0577 2.2016 44.0585 2.18685 44.0558 2.17255C44.053 2.15825 44.0467 2.14482 44.0375 2.13344C44.0282 2.12205 44.0162 2.11305 44.0026 2.10721C40.4709 0.628618 35.8907 1.38053 32.9827 4.20416C30.1995 6.9058 30.0414 10.963 31.0609 14.5101C31.2058 15.014 31.2054 15.5472 31.0599 16.0509C30.9143 16.5546 30.6292 17.0091 30.2361 17.3643L11.6312 34.2703C11.1871 34.6591 10.8288 35.1324 10.5782 35.6613C10.3276 36.1901 10.1899 36.7634 10.1735 37.3461C10.1572 37.9288 10.2625 38.5085 10.4831 39.05C10.7037 39.5915 11.035 40.0833 11.4566 40.4954C11.8782 40.9074 12.3813 41.2311 12.9351 41.4465C13.489 41.662 14.082 41.7647 14.6778 41.7484C15.2736 41.7321 15.8598 41.5972 16.4005 41.3518C16.9412 41.1064 17.425 40.7558 17.8224 40.3214L35.2605 22.0966C35.6197 21.7185 36.0776 21.4433 36.5849 21.3007C37.0921 21.158 37.6296 21.1532 38.1394 21.2869C41.7377 22.227 45.8276 22.0503 48.5785 19.4002C51.5349 16.5524 52.1726 11.5193 50.7401 8.63889C50.7336 8.62626 50.7242 8.61531 50.7125 8.60694C50.7009 8.59858 50.6873 8.59304 50.6731 8.59078C50.6588 8.58852 50.6442 8.58961 50.6304 8.59395C50.6166 8.59829 50.6041 8.60577 50.5939 8.61576L45.0941 13.9959Z" stroke="white" stroke-miterlimit="10" stroke-linecap="round"/>
<path d="M22.2641 24.2604C20.4257 22.4473 19.5833 21.6036 19.0038 21.0298C18.7138 20.7377 18.5234 20.3592 18.4604 19.9496C18.3974 19.54 18.4651 19.1206 18.6536 18.7528C18.753 18.5719 18.8769 18.4061 19.0217 18.26L20.6708 16.6293C20.8415 16.456 21.0422 16.3161 21.2629 16.2166C21.6113 16.0601 21.9981 16.0133 22.373 16.0822C22.748 16.151 23.094 16.3323 23.3663 16.6026C23.9395 17.1668 24.9891 18.2025 26.8801 20.071M32.0524 25.0389C36.3591 29.1024 41.5829 33.92 43.6211 35.6414C43.7736 35.7688 43.898 35.9271 43.9865 36.1063C44.0749 36.2854 44.1254 36.4813 44.1347 36.6814C44.1441 36.8815 44.112 37.0814 44.0405 37.2682C43.9691 37.4549 43.8599 37.6245 43.72 37.7659L40.2094 41.3249C40.0665 41.4665 39.8967 41.5771 39.7103 41.65C39.524 41.7229 39.3249 41.7566 39.1253 41.749C38.9256 41.7415 38.7296 41.6928 38.5492 41.6059C38.3687 41.5191 38.2075 41.3959 38.0755 41.2439C36.337 39.1982 31.6506 34.0863 27.6352 29.8319" stroke="white" stroke-linecap="round" stroke-linejoin="round"/>
<path d="M1.1394 14.9314L4.19672 11.9209C4.24338 11.8746 4.29881 11.8382 4.35971 11.8139C4.4206 11.7896 4.48573 11.7779 4.5512 11.7795C4.68318 11.778 4.81045 11.8288 4.90569 11.9209C5.0164 12.0312 5.15062 12.1147 5.29814 12.165C5.44566 12.2153 5.60262 12.231 5.75708 12.211C6.15523 12.167 6.58041 12.0434 6.85589 11.7795C7.47962 11.1719 6.75817 9.9746 7.30705 9.20888C7.93467 8.37063 8.62189 7.57943 9.36328 6.84152C9.98701 6.22559 12.4653 3.87499 16.6297 2.18536C17.9615 1.64291 19.3847 1.36476 20.8212 1.36622C23.1695 1.36622 24.9794 2.41372 25.6302 3.00765C26.0208 3.38212 26.3783 3.79009 26.6988 4.22695C26.3858 4.11073 26.0661 4.01383 25.7414 3.93679C25.0585 3.79078 24.358 3.74632 23.6623 3.8048C22.2766 3.91898 20.605 4.56529 19.712 5.27131C18.267 6.42356 17.6464 7.96549 17.5487 9.9547C17.478 11.4338 17.8315 12.2697 21.3015 15.7673C21.4201 15.9007 21.4827 16.0753 21.4761 16.2542C21.4695 16.4332 21.3942 16.6026 21.2661 16.7268L19.3721 18.6123C19.24 18.7428 19.063 18.8166 18.8781 18.8184C18.6932 18.8201 18.5148 18.7497 18.3803 18.6217C16.0996 16.3235 14.5704 15.1556 13.7024 14.6245C12.8343 14.0934 12.1358 13.9436 11.8 13.9069C11.1405 13.8411 10.477 13.9827 9.90073 14.3123C9.79962 14.3683 9.70716 14.4389 9.62629 14.5218C9.49132 14.6624 9.38531 14.8285 9.3144 15.0106C9.24348 15.1927 9.20906 15.3871 9.21312 15.5827C9.21718 15.7782 9.25964 15.9711 9.33805 16.15C9.41646 16.3289 9.52926 16.4904 9.66995 16.6252L9.84771 16.7928C9.89386 16.838 9.93054 16.8921 9.95559 16.9518C9.98064 17.0115 9.99355 17.0757 9.99355 17.1406C9.99355 17.2054 9.98064 17.2696 9.95559 17.3293C9.93054 17.3891 9.89386 17.4431 9.84771 17.4883L6.79351 20.4936C6.74728 20.5409 6.69205 20.5782 6.63113 20.6034C6.57022 20.6286 6.50487 20.6412 6.43903 20.6403C6.30707 20.6416 6.17984 20.5908 6.08454 20.4989L1.1394 15.6353C1.0499 15.5403 1 15.4143 1 15.2834C1 15.1524 1.0499 15.0264 1.1394 14.9314Z" stroke="white" stroke-linecap="round" stroke-linejoin="round"/>
</svg>
