<svg width="47" height="46" viewBox="0 0 47 46" fill="none" xmlns="http://www.w3.org/2000/svg">
<path d="M46 23C46 28.8348 43.6295 34.4305 39.4099 38.5564C35.1903 42.6822 29.4674 45 23.5 45M46 23C46 17.1652 43.6295 11.5695 39.4099 7.44365C35.1903 3.31785 29.4674 1 23.5 1M46 23C46 28.6083 35.9269 33.1538 23.5 33.1538C11.0731 33.1538 1 28.6083 1 23M46 23C46 17.3917 35.9269 12.8462 23.5 12.8462C11.0731 12.8462 1 17.3917 1 23M23.5 45C17.5326 45 11.8097 42.6822 7.5901 38.5564C3.37053 34.4305 1 28.8348 1 23M23.5 45C29.2358 45 33.8846 35.1508 33.8846 23C33.8846 10.8492 29.2358 1 23.5 1M23.5 45C17.7642 45 13.1154 35.1508 13.1154 23C13.1154 10.8492 17.7642 1 23.5 1M23.5 1C17.5326 1 11.8097 3.31785 7.5901 7.44365C3.37053 11.5695 1 17.1652 1 23" stroke="white"/>
</svg>
