<svg width="43" height="43" viewBox="0 0 43 43" fill="none" xmlns="http://www.w3.org/2000/svg">
<path d="M40.1794 29.8745H31.9296C30.7906 29.8745 29.8672 30.7979 29.8672 31.937V40.1867C29.8672 41.3258 30.7906 42.2492 31.9296 42.2492H40.1794C41.3184 42.2492 42.2418 41.3258 42.2418 40.1867V31.937C42.2418 30.7979 41.3184 29.8745 40.1794 29.8745Z" stroke="white" stroke-linecap="round" stroke-linejoin="round"/>
<path d="M11.3122 29.8745H3.06244C1.92339 29.8745 1 30.7979 1 31.937V40.1867C1 41.3258 1.92339 42.2492 3.06244 42.2492H11.3122C12.4513 42.2492 13.3746 41.3258 13.3746 40.1867V31.937C13.3746 30.7979 12.4513 29.8745 11.3122 29.8745Z" stroke="white" stroke-linecap="round" stroke-linejoin="round"/>
<path d="M25.7419 1H17.4921C16.3531 1 15.4297 1.92339 15.4297 3.06244V11.3122C15.4297 12.4513 16.3531 13.3746 17.4921 13.3746H25.7419C26.8809 13.3746 27.8043 12.4513 27.8043 11.3122V3.06244C27.8043 1.92339 26.8809 1 25.7419 1Z" stroke="white" stroke-linecap="round" stroke-linejoin="round"/>
<path d="M7.17969 29.8745V23.6872C7.17969 23.1402 7.39698 22.6156 7.78376 22.2288C8.17055 21.8421 8.69514 21.6248 9.24213 21.6248H33.9914C34.5384 21.6248 35.063 21.8421 35.4498 22.2288C35.8366 22.6156 36.0539 23.1402 36.0539 23.6872V29.8745M21.6168 21.6248V13.375" stroke="white" stroke-linecap="round" stroke-linejoin="round"/>
</svg>
