<svg width="19" height="19" viewBox="0 0 19 19" fill="none" xmlns="http://www.w3.org/2000/svg">
<path d="M16.278 0.00878906H2.19989C1.61661 0.00933266 1.05738 0.241281 0.644934 0.653723C0.232492 1.06616 0.000543598 1.6254 0 2.20868V16.2867C0 17.5012 0.986512 18.4866 2.19989 18.4866H16.278C16.8612 18.4861 17.4205 18.2541 17.8329 17.8417C18.2454 17.4293 18.4773 16.87 18.4778 16.2867V2.20868C18.4773 1.6254 18.2454 1.06616 17.8329 0.653723C17.4205 0.241281 16.8612 0.00933266 16.278 0.00878906ZM14.5205 8.07026C13.873 8.13313 13.2215 8.00047 12.6501 7.68942C12.1682 7.42958 11.7589 7.05342 11.4593 6.59512V11.6704C11.4593 12.4122 11.2394 13.1375 10.8272 13.7543C10.415 14.3712 9.8292 14.8519 9.14379 15.1358C8.45838 15.4197 7.70418 15.494 6.97656 15.3493C6.24893 15.2046 5.58057 14.8473 5.05598 14.3227C4.5314 13.7981 4.17415 13.1298 4.02941 12.4021C3.88468 11.6745 3.95896 10.9203 4.24287 10.2349C4.52677 9.54951 5.00755 8.96369 5.6244 8.55152C6.24125 8.13935 6.96646 7.91936 7.70834 7.91936C7.78636 7.91936 7.86233 7.92655 7.93932 7.93065V9.77946C7.86233 9.77023 7.78739 9.75585 7.70834 9.75585C7.20058 9.75585 6.71362 9.95756 6.35458 10.3166C5.99554 10.6756 5.79383 11.1626 5.79383 11.6704C5.79383 12.1781 5.99554 12.6651 6.35458 13.0241C6.71362 13.3832 7.20058 13.5849 7.70834 13.5849C8.76569 13.5849 9.69984 12.7523 9.69984 11.695L9.71832 3.07406H11.4871C11.568 3.84236 11.9163 4.55779 12.4712 5.09536C13.026 5.63294 13.7521 5.95848 14.5226 6.01512V8.07026" fill="#353535"/>
</svg>
