<svg width="19" height="19" viewBox="0 0 19 19" fill="none" xmlns="http://www.w3.org/2000/svg">
    <path
        d="M16.996 3.66345C16.996 3.32041 16.8597 2.99141 16.6171 2.74884C16.3746 2.50628 16.0456 2.37 15.7025 2.37H10.5287C10.2837 2.37 10.0487 2.27266 9.87543 2.0994C9.70216 1.92614 9.60483 1.69114 9.60483 1.44611C9.60483 1.20108 9.70216 0.966082 9.87543 0.792819C10.0487 0.619555 10.2837 0.522217 10.5287 0.522217H15.7025C16.5356 0.522217 17.3346 0.853167 17.9237 1.44226C18.5128 2.03136 18.8438 2.83034 18.8438 3.66345V15.8588C18.8437 16.6919 18.5128 17.4909 17.9237 18.08C17.3346 18.6691 16.5356 19.0001 15.7025 19.0001H10.5287C10.2837 19.0001 10.0487 18.9027 9.87543 18.7295C9.70216 18.5562 9.60483 18.3212 9.60483 18.0762C9.60483 17.8311 9.70216 17.5961 9.87543 17.4229C10.0487 17.2496 10.2837 17.1523 10.5287 17.1523H15.7025C16.0456 17.1523 16.3746 17.016 16.6171 16.7734C16.8597 16.5309 16.996 16.2019 16.996 15.8588V3.66345Z"
        fill="#353535" />
    <path
        d="M5.631 5.41235C5.45775 5.23915 5.22279 5.14185 4.97781 5.14185C4.73283 5.14185 4.49787 5.23915 4.32462 5.41235L0.629046 9.10792C0.455843 9.28117 0.358543 9.51613 0.358543 9.76111C0.358543 10.0061 0.455843 10.241 0.629046 10.4143L4.32462 14.1099C4.49886 14.2782 4.73224 14.3713 4.97448 14.3692C5.21672 14.3671 5.44845 14.2699 5.61975 14.0986C5.79104 13.9273 5.88821 13.6956 5.89031 13.4534C5.89242 13.2111 5.7993 12.9777 5.631 12.8035L3.51251 10.685H14.2167C14.4618 10.685 14.6968 10.5877 14.87 10.4144C15.0433 10.2411 15.1406 10.0061 15.1406 9.76111C15.1406 9.51608 15.0433 9.28108 14.87 9.10782C14.6968 8.93456 14.4618 8.83722 14.2167 8.83722H3.51251L5.631 6.71873C5.8042 6.54548 5.9015 6.31052 5.9015 6.06554C5.9015 5.82056 5.8042 5.5856 5.631 5.41235Z"
        fill="#353535" />
</svg>