<svg width="19" height="19" viewBox="0 0 19 19" fill="none" xmlns="http://www.w3.org/2000/svg">
<path d="M2.05309 0.531006H16.4248C16.9693 0.531006 17.4915 0.747313 17.8765 1.13234C18.2615 1.51737 18.4778 2.03959 18.4778 2.5841V16.9558C18.4778 18.0952 17.5642 19.0089 16.4248 19.0089H2.05309C1.50858 19.0089 0.986367 18.7925 0.601337 18.4075C0.216307 18.0225 0 17.5003 0 16.9558V2.5841C0 1.4549 0.923892 0.531006 2.05309 0.531006ZM13.3451 14.9027V12.8496H5.13274V14.9027H13.3451ZM13.3451 8.74338L9.23892 4.63719L5.13274 8.74338H7.6991V11.823H10.7787V8.74338H13.3451Z" fill="#353535"/>
</svg>
