<svg width="19" height="16" viewBox="0 0 19 16" fill="none" xmlns="http://www.w3.org/2000/svg">
<path d="M18.4168 3.34521C18.3739 3.25689 18.3105 3.18011 18.2318 3.12128C18.1532 3.06244 18.0617 3.02325 17.9649 3.00697C17.868 2.9907 17.7687 2.99781 17.6752 3.02771C17.5816 3.05761 17.4966 3.10944 17.4272 3.17887L15.5573 5.04879C15.481 5.12403 15.3781 5.16621 15.271 5.16621C15.1639 5.16621 15.061 5.12403 14.9848 5.04879L14.1629 4.22698C14.0878 4.15059 14.0456 4.04772 14.0456 3.94055C14.0456 3.83338 14.0878 3.7305 14.1629 3.65412L16.023 1.79371C16.0942 1.72254 16.1468 1.63502 16.1763 1.53881C16.2059 1.44259 16.2114 1.3406 16.1923 1.24177C16.1733 1.14293 16.1304 1.05026 16.0673 0.971862C16.0042 0.89346 15.9228 0.831716 15.8303 0.79203C14.3786 0.170551 12.5738 0.519676 11.4434 1.64346C10.4633 2.61625 10.1701 4.12937 10.6392 5.80005C10.6594 5.87175 10.6593 5.94766 10.6389 6.01931C10.6185 6.09096 10.5786 6.15554 10.5236 6.20584L4.20284 12.0788C3.99344 12.2672 3.82458 12.4962 3.70656 12.752C3.58854 13.0077 3.52382 13.2848 3.51635 13.5664C3.50889 13.848 3.55882 14.1281 3.66312 14.3898C3.76742 14.6514 3.92389 14.8891 4.12301 15.0883C4.32214 15.2875 4.55973 15.4441 4.82133 15.5486C5.08292 15.653 5.36304 15.7031 5.64462 15.6957C5.92619 15.6884 6.20333 15.6238 6.45914 15.5059C6.71495 15.388 6.94408 15.2193 7.13256 15.01L13.0582 8.67823C13.1078 8.62451 13.1711 8.58533 13.2413 8.56491C13.3115 8.54449 13.386 8.5436 13.4567 8.56234C15.1017 9.00103 16.6006 8.70857 17.5668 7.75807C18.1225 7.20971 18.5104 6.43579 18.6595 5.57522C18.7995 4.76364 18.7111 3.9506 18.4168 3.34521Z" fill="#353535"/>
<path d="M15.9877 12.5656C15.4781 12.1419 14.3894 11.1617 13.2799 10.1447L10.8645 12.726C11.8969 13.8228 12.8313 14.8409 13.2408 15.3172L13.2433 15.3202C13.3417 15.4327 13.462 15.524 13.5969 15.5884C13.7318 15.6528 13.8785 15.6889 14.0278 15.6945H14.0681C14.3553 15.6937 14.6308 15.5806 14.8358 15.3794L14.8383 15.3768L16.0604 14.1569C16.1666 14.051 16.2495 13.9241 16.3037 13.7843C16.358 13.6445 16.3825 13.4949 16.3756 13.3451C16.3687 13.1953 16.3306 13.0485 16.2638 12.9143C16.1969 12.7801 16.1027 12.6613 15.9873 12.5656H15.9877ZM4.33351 6.57523C4.33406 6.43649 4.2961 6.30031 4.22383 6.18187C4.21371 6.16586 4.20829 6.14731 4.20822 6.12837C4.20814 6.10942 4.2134 6.09083 4.22339 6.07473C4.23339 6.05863 4.24771 6.04568 4.26473 6.03734C4.28175 6.029 4.30077 6.02563 4.31961 6.0276H4.32181C4.35252 6.03089 4.51666 6.05465 4.74953 6.19613C4.92245 6.30105 5.41597 6.63775 6.27508 7.49539C6.26593 7.78749 6.35931 8.07358 6.53902 8.30404L8.96023 6.05392C8.74578 5.85087 8.46558 5.73153 8.17059 5.71759C8.16785 5.71457 8.16529 5.7114 8.16291 5.70809L8.13915 5.68286L7.24202 4.44576C7.14229 4.31033 7.07689 4.15274 7.05142 3.9865C7.02595 3.82025 7.04118 3.65031 7.09579 3.49124C7.17808 3.25432 7.32776 3.04658 7.52644 2.89352C7.73446 2.7323 8.20385 2.53818 8.6027 2.50528C8.78849 2.48996 8.97552 2.50154 9.15801 2.53965C9.24542 2.56077 9.33159 2.58677 9.4161 2.61751C9.44171 2.62708 9.46798 2.63477 9.4947 2.64054C9.61074 2.66625 9.73186 2.656 9.84193 2.61115C9.952 2.5663 10.0458 2.48898 10.1108 2.38949C10.1759 2.29001 10.209 2.17307 10.2059 2.05425C10.2028 1.93544 10.1636 1.82038 10.0935 1.72441C10.084 1.71162 10.0453 1.65897 9.98786 1.58805C9.88076 1.453 9.76343 1.32638 9.63691 1.20932C9.33897 0.940253 8.56687 0.486574 7.55313 0.486574C6.97299 0.486121 6.39824 0.597844 5.86051 0.815592C4.4578 1.38041 3.54021 2.15287 3.11833 2.56268L3.11504 2.56597C2.83116 2.84625 2.56833 3.14708 2.32869 3.46601C2.23809 3.59378 2.17919 3.74127 2.15687 3.8963C2.14644 3.96225 2.11176 4.02194 2.05962 4.06366C2.00748 4.10538 1.94165 4.12614 1.87501 4.12186H1.83516C1.63587 4.12053 1.44414 4.19806 1.30179 4.33755L0.225167 5.38711L0.213468 5.39881C0.0780398 5.53951 0.00165858 5.72675 2.66949e-05 5.92203C-0.00160519 6.11731 0.0716362 6.3058 0.204694 6.44874C0.21164 6.45606 0.218221 6.463 0.225532 6.46995L1.96202 8.16366C2.10509 8.30384 2.29728 8.38256 2.49758 8.383C2.69688 8.38433 2.88861 8.3068 3.03096 8.16732L4.10795 7.11482C4.17979 7.04459 4.23678 6.96064 4.27553 6.86794C4.31428 6.77524 4.334 6.6757 4.33351 6.57523Z" fill="#353535"/>
</svg>
